<svg xmlns="http://www.w3.org/2000/svg" width="1080" height="1350" viewBox="0 0 1080 1350" role="img" aria-labelledby="title desc">
  <title id="title">Ambientes críticos</title><desc id="desc">Ilustração abstrata de fluxo de ar e operação técnica.</desc>
  <defs><linearGradient id="bg" x1="0" y1="0" x2="1" y2="1"><stop stop-color="#101827"/><stop offset="1" stop-color="#182c49"/></linearGradient><linearGradient id="red" x1="0" y1="0" x2="1" y2="0"><stop stop-color="#f04451"/><stop offset="1" stop-color="#ff7c66"/></linearGradient></defs>
  <rect width="1080" height="1350" fill="url(#bg)"/><path d="M780 0h300v1350H570z" fill="#0c1320" opacity=".8"/><path d="M650 0 540 1350h-34L616 0z" fill="url(#red)"/>
  <g fill="none" stroke="#71c3ff" stroke-width="16" opacity=".8"><path d="M670 230c180 0 200 95 280 95"/><path d="M670 360c150 0 175 95 265 95"/><path d="M670 490c135 0 170 95 250 95"/></g><g fill="#71c3ff"><circle cx="950" cy="325" r="17"/><circle cx="935" cy="455" r="17"/><circle cx="920" cy="585" r="17"/></g>
  <text x="92" y="150" fill="#9fadc2" font-family="Arial, sans-serif" font-size="28" font-weight="700" letter-spacing="5">GUIA TÉCNICO</text><text x="88" y="410" fill="#f8fafc" font-family="Arial, sans-serif" font-size="112" font-weight="800">AMBIENTES</text><text x="88" y="530" fill="#f04451" font-family="Arial, sans-serif" font-size="112" font-weight="800">CRÍTICOS</text><rect x="90" y="590" width="145" height="8" rx="4" fill="#f04451"/><text x="90" y="680" fill="#d5e6ff" font-family="Arial, sans-serif" font-size="44" font-weight="600">O contexto muda</text><text x="90" y="735" fill="#d5e6ff" font-family="Arial, sans-serif" font-size="44" font-weight="600">a decisão técnica.</text><text x="90" y="1210" fill="#9fadc2" font-family="Arial, sans-serif" font-size="26">DEMO ANONIMIZADA · PORTFÓLIO</text>
</svg>
