<svg xmlns="http://www.w3.org/2000/svg" width="1080" height="1350" viewBox="0 0 1080 1350" role="img" aria-labelledby="title desc">
  <title id="title">Checklist técnico</title><desc id="desc">Checklist visual de inspeção preventiva.</desc>
  <rect width="1080" height="1350" fill="#0d1623"/><rect x="65" y="75" width="950" height="1200" rx="36" fill="#182638" stroke="#385474" stroke-width="3"/><rect x="65" y="75" width="950" height="190" rx="36" fill="#20354f"/>
  <text x="126" y="160" fill="#71c3ff" font-family="Arial, sans-serif" font-size="28" font-weight="700" letter-spacing="5">INSPEÇÃO</text><text x="122" y="230" fill="#f7f9fd" font-family="Arial, sans-serif" font-size="56" font-weight="800">CHECKLIST TÉCNICO</text>
  <g font-family="Arial, sans-serif" font-size="40" fill="#e7effa"><g transform="translate(125 395)"><rect width="54" height="54" rx="12" fill="#35c58a"/><path d="m13 27 12 12 20-25" fill="none" stroke="#082014" stroke-width="9"/><text x="92" y="42">Condições do ambiente</text></g><g transform="translate(125 550)"><rect width="54" height="54" rx="12" fill="#35c58a"/><path d="m13 27 12 12 20-25" fill="none" stroke="#082014" stroke-width="9"/><text x="92" y="42">Acesso para manutenção</text></g><g transform="translate(125 705)"><rect width="54" height="54" rx="12" fill="#f04451"/><path d="M18 18 36 36M36 18 18 36" stroke="#fff" stroke-width="8"/><text x="92" y="42">Evidências a registrar</text></g><g transform="translate(125 860)"><rect width="54" height="54" rx="12" fill="#35c58a"/><path d="m13 27 12 12 20-25" fill="none" stroke="#082014" stroke-width="9"/><text x="92" y="42">Próxima ação definida</text></g></g><text x="125" y="1160" fill="#9fadc2" font-family="Arial, sans-serif" font-size="28">DECIDIR COM EVIDÊNCIA, NÃO POR IMPROVISO.</text><text x="125" y="1225" fill="#9fadc2" font-family="Arial, sans-serif" font-size="24">DEMO ANONIMIZADA · PORTFÓLIO</text>
</svg>
